<mxfile host="app.diagrams.net" agent="Mozilla/5.0 (Windows NT 10.0; Win64; x64) AppleWebKit/537.36 (KHTML, like Gecko) Chrome/138.0.0.0 Safari/537.36 Edg/138.0.0.0" version="27.2.0">
  <diagram name="第 1 页" id="xFlkvtPawCAcZ2Zmb_b7">
    <mxGraphModel dx="1664" dy="1067" grid="0" gridSize="10" guides="1" tooltips="1" connect="1" arrows="1" fold="1" page="0" pageScale="1" pageWidth="827" pageHeight="1169" math="0" shadow="0">
      <root>
        <mxCell id="0" />
        <mxCell id="1" parent="0" />
        <mxCell id="qgLrqtivK7m1MMnGs5ls-14" value="" style="group" parent="1" vertex="1" connectable="0">
          <mxGeometry x="181" y="81" width="191" height="810" as="geometry" />
        </mxCell>
        <mxCell id="qgLrqtivK7m1MMnGs5ls-12" style="edgeStyle=orthogonalEdgeStyle;rounded=0;orthogonalLoop=1;jettySize=auto;html=1;endArrow=none;endFill=0;dashed=1;" parent="qgLrqtivK7m1MMnGs5ls-14" source="qgLrqtivK7m1MMnGs5ls-3" edge="1">
          <mxGeometry relative="1" as="geometry">
            <mxPoint x="95" y="864" as="targetPoint" />
          </mxGeometry>
        </mxCell>
        <mxCell id="qgLrqtivK7m1MMnGs5ls-3" value="&lt;div style=&quot;text-align: start;&quot;&gt;&lt;span style=&quot;color: light-dark(rgb(0, 0, 0), rgb(255, 255, 255)); text-wrap-mode: nowrap; background-color: rgb(255, 255, 255);&quot;&gt;&lt;font face=&quot;ui-sans-serif, system-ui, sans-serif, Apple Color Emoji, Segoe UI Emoji, Segoe UI Symbol, Noto Color Emoji&quot;&gt;：EmergencyController&lt;/font&gt;&lt;/span&gt;&lt;/div&gt;" style="rounded=0;whiteSpace=wrap;html=1;" parent="qgLrqtivK7m1MMnGs5ls-14" vertex="1">
          <mxGeometry x="9.5" y="3" width="172" height="61" as="geometry" />
        </mxCell>
        <mxCell id="qgLrqtivK7m1MMnGs5ls-13" value="" style="html=1;points=[[0,0,0,0,5],[0,1,0,0,-5],[1,0,0,0,5],[1,1,0,0,-5]];perimeter=orthogonalPerimeter;outlineConnect=0;targetShapes=umlLifeline;portConstraint=eastwest;newEdgeStyle={&quot;curved&quot;:0,&quot;rounded&quot;:0};" parent="qgLrqtivK7m1MMnGs5ls-14" vertex="1">
          <mxGeometry x="90.5" y="131.12" width="10" height="678.88" as="geometry" />
        </mxCell>
        <mxCell id="qgLrqtivK7m1MMnGs5ls-18" value="" style="group" parent="1" vertex="1" connectable="0">
          <mxGeometry x="35" y="81" width="30" height="838" as="geometry" />
        </mxCell>
        <mxCell id="qgLrqtivK7m1MMnGs5ls-16" style="edgeStyle=orthogonalEdgeStyle;rounded=0;orthogonalLoop=1;jettySize=auto;html=1;endArrow=none;endFill=0;dashed=1;" parent="qgLrqtivK7m1MMnGs5ls-18" source="qgLrqtivK7m1MMnGs5ls-1" edge="1">
          <mxGeometry relative="1" as="geometry">
            <mxPoint x="15" y="951" as="targetPoint" />
          </mxGeometry>
        </mxCell>
        <mxCell id="qgLrqtivK7m1MMnGs5ls-1" value="抢险队" style="shape=umlActor;verticalLabelPosition=bottom;verticalAlign=top;html=1;outlineConnect=0;" parent="qgLrqtivK7m1MMnGs5ls-18" vertex="1">
          <mxGeometry width="30" height="80.04773269689738" as="geometry" />
        </mxCell>
        <mxCell id="qgLrqtivK7m1MMnGs5ls-10" value="" style="html=1;points=[[0,0,0,0,5],[0,1,0,0,-5],[1,0,0,0,5],[1,1,0,0,-5]];perimeter=orthogonalPerimeter;outlineConnect=0;targetShapes=umlLifeline;portConstraint=eastwest;newEdgeStyle={&quot;curved&quot;:0,&quot;rounded&quot;:0};" parent="qgLrqtivK7m1MMnGs5ls-18" vertex="1">
          <mxGeometry x="10" y="149.42" width="10" height="688.58" as="geometry" />
        </mxCell>
        <mxCell id="qgLrqtivK7m1MMnGs5ls-39" value="" style="group" parent="1" vertex="1" connectable="0">
          <mxGeometry x="649" y="81" width="146" height="766" as="geometry" />
        </mxCell>
        <mxCell id="qgLrqtivK7m1MMnGs5ls-40" style="edgeStyle=orthogonalEdgeStyle;rounded=0;orthogonalLoop=1;jettySize=auto;html=1;endArrow=none;endFill=0;dashed=1;" parent="qgLrqtivK7m1MMnGs5ls-39" source="qgLrqtivK7m1MMnGs5ls-41" edge="1">
          <mxGeometry relative="1" as="geometry">
            <mxPoint x="73" y="824" as="targetPoint" />
          </mxGeometry>
        </mxCell>
        <mxCell id="qgLrqtivK7m1MMnGs5ls-41" value="&lt;span style=&quot;font-family: ui-sans-serif, system-ui, sans-serif, &amp;quot;Apple Color Emoji&amp;quot;, &amp;quot;Segoe UI Emoji&amp;quot;, &amp;quot;Segoe UI Symbol&amp;quot;, &amp;quot;Noto Color Emoji&amp;quot;; text-align: start; text-wrap-mode: nowrap; background-color: rgb(255, 255, 255);&quot;&gt;:EmergencyTeam&lt;/span&gt;" style="rounded=0;whiteSpace=wrap;html=1;" parent="qgLrqtivK7m1MMnGs5ls-39" vertex="1">
          <mxGeometry width="146" height="66.55021834061135" as="geometry" />
        </mxCell>
        <mxCell id="qgLrqtivK7m1MMnGs5ls-43" value="" style="html=1;points=[[0,0,0,0,5],[0,1,0,0,-5],[1,0,0,0,5],[1,1,0,0,-5]];perimeter=orthogonalPerimeter;outlineConnect=0;targetShapes=umlLifeline;portConstraint=eastwest;newEdgeStyle={&quot;curved&quot;:0,&quot;rounded&quot;:0};" parent="qgLrqtivK7m1MMnGs5ls-39" vertex="1">
          <mxGeometry x="69.09" y="190" width="7.82" height="576" as="geometry" />
        </mxCell>
        <mxCell id="gtQBgWxJ8rr2tK2Lz2N0-35" style="edgeStyle=orthogonalEdgeStyle;rounded=0;orthogonalLoop=1;jettySize=auto;html=1;curved=0;endArrow=open;endFill=0;" edge="1" parent="qgLrqtivK7m1MMnGs5ls-39">
          <mxGeometry relative="1" as="geometry">
            <mxPoint x="76.90999999999985" y="309" as="sourcePoint" />
            <mxPoint x="76.90999999999985" y="345.00000000000045" as="targetPoint" />
            <Array as="points">
              <mxPoint x="97" y="309" />
            </Array>
          </mxGeometry>
        </mxCell>
        <mxCell id="gtQBgWxJ8rr2tK2Lz2N0-36" value="reportCompletion()" style="edgeLabel;html=1;align=center;verticalAlign=middle;resizable=0;points=[];" vertex="1" connectable="0" parent="gtQBgWxJ8rr2tK2Lz2N0-35">
          <mxGeometry x="-0.1216" y="3" relative="1" as="geometry">
            <mxPoint x="32" y="3" as="offset" />
          </mxGeometry>
        </mxCell>
        <mxCell id="qgLrqtivK7m1MMnGs5ls-44" value="" style="group" parent="1" vertex="1" connectable="0">
          <mxGeometry x="852" y="81" width="146" height="735" as="geometry" />
        </mxCell>
        <mxCell id="qgLrqtivK7m1MMnGs5ls-45" style="edgeStyle=orthogonalEdgeStyle;rounded=0;orthogonalLoop=1;jettySize=auto;html=1;endArrow=none;endFill=0;dashed=1;" parent="qgLrqtivK7m1MMnGs5ls-44" source="qgLrqtivK7m1MMnGs5ls-46" edge="1">
          <mxGeometry relative="1" as="geometry">
            <mxPoint x="73" y="826" as="targetPoint" />
          </mxGeometry>
        </mxCell>
        <mxCell id="qgLrqtivK7m1MMnGs5ls-46" value="&lt;div style=&quot;text-align: start;&quot;&gt;&lt;span style=&quot;color: light-dark(rgb(0, 0, 0), rgb(255, 255, 255)); text-wrap-mode: nowrap; background-color: rgb(255, 255, 255);&quot;&gt;&lt;font face=&quot;ui-sans-serif, system-ui, sans-serif, Apple Color Emoji, Segoe UI Emoji, Segoe UI Symbol, Noto Color Emoji&quot;&gt;:ReviewController&lt;/font&gt;&lt;/span&gt;&lt;/div&gt;" style="rounded=0;whiteSpace=wrap;html=1;" parent="qgLrqtivK7m1MMnGs5ls-44" vertex="1">
          <mxGeometry width="146" height="66.55021834061135" as="geometry" />
        </mxCell>
        <mxCell id="qgLrqtivK7m1MMnGs5ls-48" value="" style="html=1;points=[[0,0,0,0,5],[0,1,0,0,-5],[1,0,0,0,5],[1,1,0,0,-5]];perimeter=orthogonalPerimeter;outlineConnect=0;targetShapes=umlLifeline;portConstraint=eastwest;newEdgeStyle={&quot;curved&quot;:0,&quot;rounded&quot;:0};" parent="qgLrqtivK7m1MMnGs5ls-44" vertex="1">
          <mxGeometry x="69.18" y="353" width="7.64" height="382" as="geometry" />
        </mxCell>
        <mxCell id="gtQBgWxJ8rr2tK2Lz2N0-13" value="" style="group" vertex="1" connectable="0" parent="1">
          <mxGeometry x="1076" y="81" width="146" height="725" as="geometry" />
        </mxCell>
        <mxCell id="gtQBgWxJ8rr2tK2Lz2N0-14" style="edgeStyle=orthogonalEdgeStyle;rounded=0;orthogonalLoop=1;jettySize=auto;html=1;endArrow=none;endFill=0;dashed=1;" edge="1" parent="gtQBgWxJ8rr2tK2Lz2N0-13" source="gtQBgWxJ8rr2tK2Lz2N0-15">
          <mxGeometry relative="1" as="geometry">
            <mxPoint x="73" y="807" as="targetPoint" />
          </mxGeometry>
        </mxCell>
        <mxCell id="gtQBgWxJ8rr2tK2Lz2N0-15" value="&lt;div style=&quot;text-align: start;&quot;&gt;&lt;span style=&quot;color: light-dark(rgb(0, 0, 0), rgb(255, 255, 255)); text-wrap-mode: nowrap; background-color: rgb(255, 255, 255);&quot;&gt;&lt;font face=&quot;ui-sans-serif, system-ui, sans-serif, Apple Color Emoji, Segoe UI Emoji, Segoe UI Symbol, Noto Color Emoji&quot;&gt;:RailwayAuthority&lt;/font&gt;&lt;/span&gt;&lt;/div&gt;" style="rounded=0;whiteSpace=wrap;html=1;" vertex="1" parent="gtQBgWxJ8rr2tK2Lz2N0-13">
          <mxGeometry width="146" height="66.55021834061135" as="geometry" />
        </mxCell>
        <mxCell id="gtQBgWxJ8rr2tK2Lz2N0-16" value="" style="html=1;points=[[0,0,0,0,5],[0,1,0,0,-5],[1,0,0,0,5],[1,1,0,0,-5]];perimeter=orthogonalPerimeter;outlineConnect=0;targetShapes=umlLifeline;portConstraint=eastwest;newEdgeStyle={&quot;curved&quot;:0,&quot;rounded&quot;:0};" vertex="1" parent="gtQBgWxJ8rr2tK2Lz2N0-13">
          <mxGeometry x="69.18" y="353" width="7.64" height="372" as="geometry" />
        </mxCell>
        <mxCell id="gtQBgWxJ8rr2tK2Lz2N0-41" style="edgeStyle=orthogonalEdgeStyle;rounded=0;orthogonalLoop=1;jettySize=auto;html=1;curved=0;endArrow=open;endFill=0;" edge="1" parent="gtQBgWxJ8rr2tK2Lz2N0-13">
          <mxGeometry relative="1" as="geometry">
            <mxPoint x="76.82000000000016" y="399" as="sourcePoint" />
            <mxPoint x="76.82000000000016" y="430.98" as="targetPoint" />
            <Array as="points">
              <mxPoint x="97" y="399" />
            </Array>
          </mxGeometry>
        </mxCell>
        <mxCell id="gtQBgWxJ8rr2tK2Lz2N0-42" value="reviewReport()" style="edgeLabel;html=1;align=center;verticalAlign=middle;resizable=0;points=[];" vertex="1" connectable="0" parent="gtQBgWxJ8rr2tK2Lz2N0-41">
          <mxGeometry x="-0.0893" y="-2" relative="1" as="geometry">
            <mxPoint x="27" y="3" as="offset" />
          </mxGeometry>
        </mxCell>
        <mxCell id="gtQBgWxJ8rr2tK2Lz2N0-17" value="" style="group" vertex="1" connectable="0" parent="1">
          <mxGeometry x="1283" y="81" width="146" height="728" as="geometry" />
        </mxCell>
        <mxCell id="gtQBgWxJ8rr2tK2Lz2N0-18" style="edgeStyle=orthogonalEdgeStyle;rounded=0;orthogonalLoop=1;jettySize=auto;html=1;endArrow=none;endFill=0;dashed=1;" edge="1" parent="gtQBgWxJ8rr2tK2Lz2N0-17" source="gtQBgWxJ8rr2tK2Lz2N0-19">
          <mxGeometry relative="1" as="geometry">
            <mxPoint x="73" y="805" as="targetPoint" />
          </mxGeometry>
        </mxCell>
        <mxCell id="gtQBgWxJ8rr2tK2Lz2N0-19" value="&lt;div style=&quot;text-align: start;&quot;&gt;&lt;span style=&quot;color: light-dark(rgb(0, 0, 0), rgb(255, 255, 255)); text-wrap-mode: nowrap; background-color: rgb(255, 255, 255);&quot;&gt;&lt;font face=&quot;ui-sans-serif, system-ui, sans-serif, Apple Color Emoji, Segoe UI Emoji, Segoe UI Symbol, Noto Color Emoji&quot;&gt;:StorableController&lt;/font&gt;&lt;/span&gt;&lt;/div&gt;" style="rounded=0;whiteSpace=wrap;html=1;" vertex="1" parent="gtQBgWxJ8rr2tK2Lz2N0-17">
          <mxGeometry width="146" height="66.55021834061135" as="geometry" />
        </mxCell>
        <mxCell id="gtQBgWxJ8rr2tK2Lz2N0-20" value="" style="html=1;points=[[0,0,0,0,5],[0,1,0,0,-5],[1,0,0,0,5],[1,1,0,0,-5]];perimeter=orthogonalPerimeter;outlineConnect=0;targetShapes=umlLifeline;portConstraint=eastwest;newEdgeStyle={&quot;curved&quot;:0,&quot;rounded&quot;:0};" vertex="1" parent="gtQBgWxJ8rr2tK2Lz2N0-17">
          <mxGeometry x="69.18" y="482" width="7.64" height="98" as="geometry" />
        </mxCell>
        <mxCell id="gtQBgWxJ8rr2tK2Lz2N0-21" value="" style="group" vertex="1" connectable="0" parent="1">
          <mxGeometry x="438" y="81" width="146" height="665" as="geometry" />
        </mxCell>
        <mxCell id="gtQBgWxJ8rr2tK2Lz2N0-22" style="edgeStyle=orthogonalEdgeStyle;rounded=0;orthogonalLoop=1;jettySize=auto;html=1;endArrow=none;endFill=0;dashed=1;" edge="1" parent="gtQBgWxJ8rr2tK2Lz2N0-21" source="gtQBgWxJ8rr2tK2Lz2N0-23">
          <mxGeometry relative="1" as="geometry">
            <mxPoint x="73" y="755" as="targetPoint" />
          </mxGeometry>
        </mxCell>
        <mxCell id="gtQBgWxJ8rr2tK2Lz2N0-23" value="&lt;span style=&quot;font-family: ui-sans-serif, system-ui, sans-serif, &amp;quot;Apple Color Emoji&amp;quot;, &amp;quot;Segoe UI Emoji&amp;quot;, &amp;quot;Segoe UI Symbol&amp;quot;, &amp;quot;Noto Color Emoji&amp;quot;; text-align: start; text-wrap-mode: nowrap; background-color: rgb(255, 255, 255);&quot;&gt;:EmergencyTask&lt;/span&gt;" style="rounded=0;whiteSpace=wrap;html=1;" vertex="1" parent="gtQBgWxJ8rr2tK2Lz2N0-21">
          <mxGeometry width="146" height="66.55021834061135" as="geometry" />
        </mxCell>
        <mxCell id="gtQBgWxJ8rr2tK2Lz2N0-24" value="" style="html=1;points=[[0,0,0,0,5],[0,1,0,0,-5],[1,0,0,0,5],[1,1,0,0,-5]];perimeter=orthogonalPerimeter;outlineConnect=0;targetShapes=umlLifeline;portConstraint=eastwest;newEdgeStyle={&quot;curved&quot;:0,&quot;rounded&quot;:0};" vertex="1" parent="gtQBgWxJ8rr2tK2Lz2N0-21">
          <mxGeometry x="69.09" y="133" width="7.82" height="532" as="geometry" />
        </mxCell>
        <mxCell id="gtQBgWxJ8rr2tK2Lz2N0-25" style="edgeStyle=orthogonalEdgeStyle;rounded=0;orthogonalLoop=1;jettySize=auto;html=1;curved=0;" edge="1" parent="1" source="qgLrqtivK7m1MMnGs5ls-10" target="qgLrqtivK7m1MMnGs5ls-13">
          <mxGeometry relative="1" as="geometry">
            <Array as="points">
              <mxPoint x="160" y="257" />
              <mxPoint x="160" y="257" />
            </Array>
          </mxGeometry>
        </mxCell>
        <mxCell id="gtQBgWxJ8rr2tK2Lz2N0-26" value="triggerEmergency()" style="edgeLabel;html=1;align=center;verticalAlign=middle;resizable=0;points=[];" vertex="1" connectable="0" parent="gtQBgWxJ8rr2tK2Lz2N0-25">
          <mxGeometry x="-0.0414" y="-1" relative="1" as="geometry">
            <mxPoint y="-14" as="offset" />
          </mxGeometry>
        </mxCell>
        <mxCell id="gtQBgWxJ8rr2tK2Lz2N0-27" style="edgeStyle=orthogonalEdgeStyle;rounded=0;orthogonalLoop=1;jettySize=auto;html=1;curved=0;" edge="1" parent="1" source="qgLrqtivK7m1MMnGs5ls-13" target="gtQBgWxJ8rr2tK2Lz2N0-24">
          <mxGeometry relative="1" as="geometry">
            <Array as="points">
              <mxPoint x="402" y="280" />
              <mxPoint x="402" y="280" />
            </Array>
          </mxGeometry>
        </mxCell>
        <mxCell id="gtQBgWxJ8rr2tK2Lz2N0-28" value="generate()" style="edgeLabel;html=1;align=center;verticalAlign=middle;resizable=0;points=[];" vertex="1" connectable="0" parent="gtQBgWxJ8rr2tK2Lz2N0-27">
          <mxGeometry x="-0.0647" y="1" relative="1" as="geometry">
            <mxPoint y="-9" as="offset" />
          </mxGeometry>
        </mxCell>
        <mxCell id="gtQBgWxJ8rr2tK2Lz2N0-29" style="edgeStyle=orthogonalEdgeStyle;rounded=0;orthogonalLoop=1;jettySize=auto;html=1;curved=0;" edge="1" parent="1" source="qgLrqtivK7m1MMnGs5ls-13" target="qgLrqtivK7m1MMnGs5ls-43">
          <mxGeometry relative="1" as="geometry">
            <Array as="points">
              <mxPoint x="502" y="337" />
              <mxPoint x="502" y="337" />
            </Array>
          </mxGeometry>
        </mxCell>
        <mxCell id="gtQBgWxJ8rr2tK2Lz2N0-30" value="dispatchTask()" style="edgeLabel;html=1;align=center;verticalAlign=middle;resizable=0;points=[];" vertex="1" connectable="0" parent="gtQBgWxJ8rr2tK2Lz2N0-29">
          <mxGeometry x="-0.5706" relative="1" as="geometry">
            <mxPoint as="offset" />
          </mxGeometry>
        </mxCell>
        <mxCell id="gtQBgWxJ8rr2tK2Lz2N0-33" style="edgeStyle=orthogonalEdgeStyle;rounded=0;orthogonalLoop=1;jettySize=auto;html=1;curved=0;dashed=1;endArrow=open;endFill=0;" edge="1" parent="1" source="qgLrqtivK7m1MMnGs5ls-43" target="gtQBgWxJ8rr2tK2Lz2N0-24">
          <mxGeometry relative="1" as="geometry">
            <Array as="points">
              <mxPoint x="624" y="369" />
              <mxPoint x="624" y="369" />
            </Array>
          </mxGeometry>
        </mxCell>
        <mxCell id="gtQBgWxJ8rr2tK2Lz2N0-34" value="executeTask()" style="edgeLabel;html=1;align=center;verticalAlign=middle;resizable=0;points=[];" vertex="1" connectable="0" parent="gtQBgWxJ8rr2tK2Lz2N0-33">
          <mxGeometry x="0.0356" y="-3" relative="1" as="geometry">
            <mxPoint x="-1" y="-7" as="offset" />
          </mxGeometry>
        </mxCell>
        <mxCell id="gtQBgWxJ8rr2tK2Lz2N0-37" style="edgeStyle=orthogonalEdgeStyle;rounded=0;orthogonalLoop=1;jettySize=auto;html=1;curved=0;" edge="1" parent="1" source="qgLrqtivK7m1MMnGs5ls-43" target="qgLrqtivK7m1MMnGs5ls-48">
          <mxGeometry relative="1" as="geometry">
            <Array as="points">
              <mxPoint x="886" y="450" />
              <mxPoint x="886" y="450" />
            </Array>
          </mxGeometry>
        </mxCell>
        <mxCell id="gtQBgWxJ8rr2tK2Lz2N0-38" value="submitReport()" style="edgeLabel;html=1;align=center;verticalAlign=middle;resizable=0;points=[];" vertex="1" connectable="0" parent="gtQBgWxJ8rr2tK2Lz2N0-37">
          <mxGeometry x="-0.0851" y="1" relative="1" as="geometry">
            <mxPoint y="-9" as="offset" />
          </mxGeometry>
        </mxCell>
        <mxCell id="gtQBgWxJ8rr2tK2Lz2N0-39" style="edgeStyle=orthogonalEdgeStyle;rounded=0;orthogonalLoop=1;jettySize=auto;html=1;curved=0;" edge="1" parent="1" source="qgLrqtivK7m1MMnGs5ls-48" target="gtQBgWxJ8rr2tK2Lz2N0-16">
          <mxGeometry relative="1" as="geometry">
            <Array as="points">
              <mxPoint x="1036" y="468" />
              <mxPoint x="1036" y="468" />
            </Array>
          </mxGeometry>
        </mxCell>
        <mxCell id="gtQBgWxJ8rr2tK2Lz2N0-40" value="reviewNotification()" style="edgeLabel;html=1;align=center;verticalAlign=middle;resizable=0;points=[];" vertex="1" connectable="0" parent="gtQBgWxJ8rr2tK2Lz2N0-39">
          <mxGeometry x="-0.0598" y="-1" relative="1" as="geometry">
            <mxPoint x="1" y="-12" as="offset" />
          </mxGeometry>
        </mxCell>
        <mxCell id="gtQBgWxJ8rr2tK2Lz2N0-55" style="edgeStyle=orthogonalEdgeStyle;rounded=0;orthogonalLoop=1;jettySize=auto;html=1;entryX=0;entryY=0.653;entryDx=0;entryDy=0;entryPerimeter=0;exitX=1;exitY=0.551;exitDx=0;exitDy=0;exitPerimeter=0;dashed=1;endArrow=none;endFill=0;" edge="1" parent="1" source="gtQBgWxJ8rr2tK2Lz2N0-44" target="gtQBgWxJ8rr2tK2Lz2N0-44">
          <mxGeometry relative="1" as="geometry">
            <mxPoint x="430.09000000000003" y="1047.06" as="sourcePoint" />
            <mxPoint x="305.00000000000034" y="876.001176470588" as="targetPoint" />
            <Array as="points">
              <mxPoint x="1440" y="682" />
              <mxPoint x="640" y="682" />
            </Array>
          </mxGeometry>
        </mxCell>
        <mxCell id="gtQBgWxJ8rr2tK2Lz2N0-44" value="alt" style="shape=umlFrame;whiteSpace=wrap;html=1;pointerEvents=0;recursiveResize=0;container=1;collapsible=0;width=61;height=30;" vertex="1" parent="1">
          <mxGeometry x="640" y="525" width="800" height="252" as="geometry" />
        </mxCell>
        <mxCell id="gtQBgWxJ8rr2tK2Lz2N0-47" style="edgeStyle=orthogonalEdgeStyle;rounded=0;orthogonalLoop=1;jettySize=auto;html=1;curved=0;" edge="1" parent="gtQBgWxJ8rr2tK2Lz2N0-44">
          <mxGeometry relative="1" as="geometry">
            <mxPoint x="291.00000000000057" y="80" as="sourcePoint" />
            <mxPoint x="714.3600000000004" y="80" as="targetPoint" />
            <Array as="points">
              <mxPoint x="392.18000000000006" y="80" />
              <mxPoint x="392.18000000000006" y="80" />
            </Array>
          </mxGeometry>
        </mxCell>
        <mxCell id="gtQBgWxJ8rr2tK2Lz2N0-48" value="recordAudit()" style="edgeLabel;html=1;align=center;verticalAlign=middle;resizable=0;points=[];" vertex="1" connectable="0" parent="gtQBgWxJ8rr2tK2Lz2N0-47">
          <mxGeometry x="-0.4464" y="-2" relative="1" as="geometry">
            <mxPoint x="-1" y="-12" as="offset" />
          </mxGeometry>
        </mxCell>
        <mxCell id="gtQBgWxJ8rr2tK2Lz2N0-56" value="report approved" style="text;html=1;align=center;verticalAlign=middle;resizable=0;points=[];autosize=1;strokeColor=none;fillColor=none;" vertex="1" parent="gtQBgWxJ8rr2tK2Lz2N0-44">
          <mxGeometry x="85" y="4" width="103" height="26" as="geometry" />
        </mxCell>
        <mxCell id="gtQBgWxJ8rr2tK2Lz2N0-57" value="report rejected" style="text;html=1;align=center;verticalAlign=middle;resizable=0;points=[];autosize=1;strokeColor=none;fillColor=none;" vertex="1" parent="gtQBgWxJ8rr2tK2Lz2N0-44">
          <mxGeometry x="89" y="154" width="95" height="26" as="geometry" />
        </mxCell>
        <mxCell id="gtQBgWxJ8rr2tK2Lz2N0-45" style="edgeStyle=orthogonalEdgeStyle;rounded=0;orthogonalLoop=1;jettySize=auto;html=1;curved=0;endArrow=open;endFill=0;dashed=1;" edge="1" parent="1" source="gtQBgWxJ8rr2tK2Lz2N0-16" target="qgLrqtivK7m1MMnGs5ls-48">
          <mxGeometry relative="1" as="geometry">
            <Array as="points">
              <mxPoint x="1038" y="566" />
              <mxPoint x="1038" y="566" />
            </Array>
          </mxGeometry>
        </mxCell>
        <mxCell id="gtQBgWxJ8rr2tK2Lz2N0-46" value="approve()" style="edgeLabel;html=1;align=center;verticalAlign=middle;resizable=0;points=[];" vertex="1" connectable="0" parent="gtQBgWxJ8rr2tK2Lz2N0-45">
          <mxGeometry x="0.1468" relative="1" as="geometry">
            <mxPoint x="-1" y="-10" as="offset" />
          </mxGeometry>
        </mxCell>
        <mxCell id="gtQBgWxJ8rr2tK2Lz2N0-49" style="edgeStyle=orthogonalEdgeStyle;rounded=0;orthogonalLoop=1;jettySize=auto;html=1;curved=0;dashed=1;endArrow=open;endFill=0;" edge="1" parent="1" source="gtQBgWxJ8rr2tK2Lz2N0-20" target="qgLrqtivK7m1MMnGs5ls-48">
          <mxGeometry relative="1" as="geometry">
            <Array as="points">
              <mxPoint x="1243" y="654" />
              <mxPoint x="1243" y="654" />
            </Array>
          </mxGeometry>
        </mxCell>
        <mxCell id="gtQBgWxJ8rr2tK2Lz2N0-50" value="auditRecord()" style="edgeLabel;html=1;align=center;verticalAlign=middle;resizable=0;points=[];" vertex="1" connectable="0" parent="gtQBgWxJ8rr2tK2Lz2N0-49">
          <mxGeometry x="0.3695" y="4" relative="1" as="geometry">
            <mxPoint x="-7" y="-13" as="offset" />
          </mxGeometry>
        </mxCell>
        <mxCell id="gtQBgWxJ8rr2tK2Lz2N0-58" style="edgeStyle=orthogonalEdgeStyle;rounded=0;orthogonalLoop=1;jettySize=auto;html=1;curved=0;dashed=1;endArrow=open;endFill=0;" edge="1" parent="1" source="gtQBgWxJ8rr2tK2Lz2N0-16" target="qgLrqtivK7m1MMnGs5ls-48">
          <mxGeometry relative="1" as="geometry">
            <Array as="points">
              <mxPoint x="1038" y="718" />
              <mxPoint x="1038" y="718" />
            </Array>
          </mxGeometry>
        </mxCell>
        <mxCell id="gtQBgWxJ8rr2tK2Lz2N0-59" value="reject()" style="edgeLabel;html=1;align=center;verticalAlign=middle;resizable=0;points=[];" vertex="1" connectable="0" parent="gtQBgWxJ8rr2tK2Lz2N0-58">
          <mxGeometry x="0.1251" relative="1" as="geometry">
            <mxPoint x="-1" y="-8" as="offset" />
          </mxGeometry>
        </mxCell>
        <mxCell id="gtQBgWxJ8rr2tK2Lz2N0-60" style="edgeStyle=orthogonalEdgeStyle;rounded=0;orthogonalLoop=1;jettySize=auto;html=1;curved=0;endArrow=open;endFill=0;dashed=1;" edge="1" parent="1" source="qgLrqtivK7m1MMnGs5ls-48" target="qgLrqtivK7m1MMnGs5ls-43">
          <mxGeometry relative="1" as="geometry">
            <Array as="points">
              <mxPoint x="834" y="750" />
              <mxPoint x="834" y="750" />
            </Array>
          </mxGeometry>
        </mxCell>
        <mxCell id="gtQBgWxJ8rr2tK2Lz2N0-61" value="requestInvestigation()" style="edgeLabel;html=1;align=center;verticalAlign=middle;resizable=0;points=[];" vertex="1" connectable="0" parent="gtQBgWxJ8rr2tK2Lz2N0-60">
          <mxGeometry x="0.2297" y="3" relative="1" as="geometry">
            <mxPoint x="5" y="-13" as="offset" />
          </mxGeometry>
        </mxCell>
        <mxCell id="gtQBgWxJ8rr2tK2Lz2N0-62" style="edgeStyle=orthogonalEdgeStyle;rounded=0;orthogonalLoop=1;jettySize=auto;html=1;curved=0;endArrow=open;endFill=0;dashed=1;" edge="1" parent="1" source="qgLrqtivK7m1MMnGs5ls-48" target="qgLrqtivK7m1MMnGs5ls-43">
          <mxGeometry relative="1" as="geometry">
            <Array as="points">
              <mxPoint x="854" y="803" />
              <mxPoint x="854" y="803" />
            </Array>
          </mxGeometry>
        </mxCell>
        <mxCell id="gtQBgWxJ8rr2tK2Lz2N0-63" value="reviewComplete()" style="edgeLabel;html=1;align=center;verticalAlign=middle;resizable=0;points=[];" vertex="1" connectable="0" parent="gtQBgWxJ8rr2tK2Lz2N0-62">
          <mxGeometry x="0.0128" relative="1" as="geometry">
            <mxPoint y="-9" as="offset" />
          </mxGeometry>
        </mxCell>
        <mxCell id="gtQBgWxJ8rr2tK2Lz2N0-64" style="edgeStyle=orthogonalEdgeStyle;rounded=0;orthogonalLoop=1;jettySize=auto;html=1;curved=0;dashed=1;endArrow=open;endFill=0;" edge="1" parent="1" source="qgLrqtivK7m1MMnGs5ls-43" target="qgLrqtivK7m1MMnGs5ls-13">
          <mxGeometry relative="1" as="geometry">
            <Array as="points">
              <mxPoint x="528" y="825" />
              <mxPoint x="528" y="825" />
            </Array>
          </mxGeometry>
        </mxCell>
        <mxCell id="gtQBgWxJ8rr2tK2Lz2N0-65" value="taskComplete()" style="edgeLabel;html=1;align=center;verticalAlign=middle;resizable=0;points=[];" vertex="1" connectable="0" parent="gtQBgWxJ8rr2tK2Lz2N0-64">
          <mxGeometry x="0.1826" y="-2" relative="1" as="geometry">
            <mxPoint x="-1" y="-6" as="offset" />
          </mxGeometry>
        </mxCell>
        <mxCell id="gtQBgWxJ8rr2tK2Lz2N0-66" style="edgeStyle=orthogonalEdgeStyle;rounded=0;orthogonalLoop=1;jettySize=auto;html=1;curved=0;dashed=1;endArrow=open;endFill=0;" edge="1" parent="1" source="qgLrqtivK7m1MMnGs5ls-13" target="qgLrqtivK7m1MMnGs5ls-10">
          <mxGeometry relative="1" as="geometry">
            <Array as="points">
              <mxPoint x="174" y="872" />
              <mxPoint x="174" y="872" />
            </Array>
          </mxGeometry>
        </mxCell>
        <mxCell id="gtQBgWxJ8rr2tK2Lz2N0-67" value="EmergencyComplete()" style="edgeLabel;html=1;align=center;verticalAlign=middle;resizable=0;points=[];" vertex="1" connectable="0" parent="gtQBgWxJ8rr2tK2Lz2N0-66">
          <mxGeometry x="0.1534" y="-2" relative="1" as="geometry">
            <mxPoint y="-8" as="offset" />
          </mxGeometry>
        </mxCell>
      </root>
    </mxGraphModel>
  </diagram>
</mxfile>
